<mxfile modified="2023-10-17T00:08:00.948Z" host="app.diagrams.net" agent="Mozilla/5.0 (Macintosh; Intel Mac OS X 10_15_7) AppleWebKit/537.36 (KHTML, like Gecko) Chrome/118.0.0.0 Safari/537.36" etag="KTVbobRZtphvAHgqV3Xg" version="22.0.4" type="github">
  <diagram id="Ht1M8jgEwFfnCIfOTk4-" name="Page-1">
    <mxGraphModel dx="904" dy="2488" grid="1" gridSize="10" guides="1" tooltips="1" connect="1" arrows="1" fold="1" page="1" pageScale="1" pageWidth="1169" pageHeight="827" math="0" shadow="0">
      <root>
        <mxCell id="0" />
        <mxCell id="1" parent="0" />
        <mxCell id="UEzPUAAOIrF-is8g5C7q-175" value="AWS Cloud" style="points=[[0,0],[0.25,0],[0.5,0],[0.75,0],[1,0],[1,0.25],[1,0.5],[1,0.75],[1,1],[0.75,1],[0.5,1],[0.25,1],[0,1],[0,0.75],[0,0.5],[0,0.25]];outlineConnect=0;gradientColor=none;html=1;whiteSpace=wrap;fontSize=12;fontStyle=0;shape=mxgraph.aws4.group;grIcon=mxgraph.aws4.group_aws_cloud_alt;strokeColor=#232F3E;fillColor=none;verticalAlign=top;align=left;spacingLeft=30;fontColor=#232F3E;dashed=0;labelBackgroundColor=#ffffff;container=1;pointerEvents=0;collapsible=0;recursiveResize=0;" parent="1" vertex="1">
          <mxGeometry x="101" y="-590" width="840" height="580" as="geometry" />
        </mxCell>
        <mxCell id="fvweWiXP8NdeZRgMbFEW-1" value="VPC" style="points=[[0,0],[0.25,0],[0.5,0],[0.75,0],[1,0],[1,0.25],[1,0.5],[1,0.75],[1,1],[0.75,1],[0.5,1],[0.25,1],[0,1],[0,0.75],[0,0.5],[0,0.25]];outlineConnect=0;gradientColor=none;html=1;whiteSpace=wrap;fontSize=12;fontStyle=0;container=1;pointerEvents=0;collapsible=0;recursiveResize=0;shape=mxgraph.aws4.group;grIcon=mxgraph.aws4.group_vpc;strokeColor=#248814;fillColor=none;verticalAlign=top;align=left;spacingLeft=30;fontColor=#AAB7B8;dashed=0;" parent="UEzPUAAOIrF-is8g5C7q-175" vertex="1">
          <mxGeometry x="10" y="30" width="800" height="540" as="geometry" />
        </mxCell>
        <mxCell id="xPwRhOb-ixuaVwfGaJ3L-38" value="us-east2-region" style="sketch=0;outlineConnect=0;gradientColor=none;html=1;whiteSpace=wrap;fontSize=12;fontStyle=0;shape=mxgraph.aws4.group;grIcon=mxgraph.aws4.group_region;strokeColor=#879196;fillColor=none;verticalAlign=top;align=left;spacingLeft=30;fontColor=#879196;dashed=1;" vertex="1" parent="fvweWiXP8NdeZRgMbFEW-1">
          <mxGeometry x="401.37" y="40" width="380.75" height="490" as="geometry" />
        </mxCell>
        <mxCell id="xPwRhOb-ixuaVwfGaJ3L-63" value="" style="rounded=1;arcSize=10;dashed=1;strokeColor=#F59D56;fillColor=none;gradientColor=none;dashPattern=8 4;strokeWidth=2;" vertex="1" parent="fvweWiXP8NdeZRgMbFEW-1">
          <mxGeometry x="599.75" y="91.5" width="144.88" height="410" as="geometry" />
        </mxCell>
        <mxCell id="fvweWiXP8NdeZRgMbFEW-25" value="" style="endArrow=classic;html=1;rounded=0;" parent="fvweWiXP8NdeZRgMbFEW-1" edge="1">
          <mxGeometry width="50" height="50" relative="1" as="geometry">
            <mxPoint x="588.38" y="319.25" as="sourcePoint" />
            <mxPoint x="588.38" y="254.25" as="targetPoint" />
          </mxGeometry>
        </mxCell>
        <mxCell id="fvweWiXP8NdeZRgMbFEW-22" value="" style="rounded=1;arcSize=10;dashed=1;strokeColor=#F59D56;fillColor=none;gradientColor=none;dashPattern=8 4;strokeWidth=2;" parent="fvweWiXP8NdeZRgMbFEW-1" vertex="1">
          <mxGeometry x="435.12" y="91.5" width="144.88" height="410" as="geometry" />
        </mxCell>
        <mxCell id="fvweWiXP8NdeZRgMbFEW-21" value="" style="rounded=1;arcSize=10;dashed=1;strokeColor=#F59D56;fillColor=none;gradientColor=none;dashPattern=8 4;strokeWidth=2;" parent="fvweWiXP8NdeZRgMbFEW-1" vertex="1">
          <mxGeometry x="31.47" y="89.75" width="158.53" height="410.5" as="geometry" />
        </mxCell>
        <mxCell id="xPwRhOb-ixuaVwfGaJ3L-49" value="" style="rounded=1;arcSize=10;dashed=1;strokeColor=#F59D56;fillColor=none;gradientColor=none;dashPattern=8 4;strokeWidth=2;" vertex="1" parent="fvweWiXP8NdeZRgMbFEW-1">
          <mxGeometry x="209" y="90" width="161" height="410.5" as="geometry" />
        </mxCell>
        <mxCell id="xPwRhOb-ixuaVwfGaJ3L-36" value="us-east-1-region" style="sketch=0;outlineConnect=0;gradientColor=none;html=1;whiteSpace=wrap;fontSize=12;fontStyle=0;shape=mxgraph.aws4.group;grIcon=mxgraph.aws4.group_region;strokeColor=#879196;fillColor=none;verticalAlign=top;align=left;spacingLeft=30;fontColor=#879196;dashed=1;" vertex="1" parent="fvweWiXP8NdeZRgMbFEW-1">
          <mxGeometry x="9.25" y="40" width="380.75" height="490" as="geometry" />
        </mxCell>
        <mxCell id="fvweWiXP8NdeZRgMbFEW-9" value="public subnet 1" style="sketch=0;outlineConnect=0;gradientColor=none;html=1;whiteSpace=wrap;fontSize=12;fontStyle=0;shape=mxgraph.aws4.group;grIcon=mxgraph.aws4.group_subnet;strokeColor=#879196;fillColor=none;verticalAlign=top;align=left;spacingLeft=30;fontColor=#879196;dashed=0;" parent="fvweWiXP8NdeZRgMbFEW-1" vertex="1">
          <mxGeometry x="67.26" y="120" width="272.74" height="140" as="geometry" />
        </mxCell>
        <mxCell id="fvweWiXP8NdeZRgMbFEW-14" value="private subnet 1" style="sketch=0;outlineConnect=0;gradientColor=none;html=1;whiteSpace=wrap;fontSize=12;fontStyle=0;shape=mxgraph.aws4.group;grIcon=mxgraph.aws4.group_subnet;strokeColor=#879196;fillColor=none;verticalAlign=top;align=left;spacingLeft=30;fontColor=#879196;dashed=0;" parent="fvweWiXP8NdeZRgMbFEW-1" vertex="1">
          <mxGeometry x="67.26" y="321.5" width="272.74" height="150" as="geometry" />
        </mxCell>
        <mxCell id="fvweWiXP8NdeZRgMbFEW-16" value="public subnet 2" style="sketch=0;outlineConnect=0;gradientColor=none;html=1;whiteSpace=wrap;fontSize=12;fontStyle=0;shape=mxgraph.aws4.group;grIcon=mxgraph.aws4.group_subnet;strokeColor=#879196;fillColor=none;verticalAlign=top;align=left;spacingLeft=30;fontColor=#879196;dashed=0;" parent="fvweWiXP8NdeZRgMbFEW-1" vertex="1">
          <mxGeometry x="459" y="120" width="251" height="140" as="geometry" />
        </mxCell>
        <mxCell id="fvweWiXP8NdeZRgMbFEW-17" value="private subnet 2" style="sketch=0;outlineConnect=0;gradientColor=none;html=1;whiteSpace=wrap;fontSize=12;fontStyle=0;shape=mxgraph.aws4.group;grIcon=mxgraph.aws4.group_subnet;strokeColor=#879196;fillColor=none;verticalAlign=top;align=left;spacingLeft=30;fontColor=#879196;dashed=0;" parent="fvweWiXP8NdeZRgMbFEW-1" vertex="1">
          <mxGeometry x="460" y="325" width="260" height="150" as="geometry" />
        </mxCell>
        <mxCell id="fvweWiXP8NdeZRgMbFEW-24" value="" style="outlineConnect=0;dashed=0;verticalLabelPosition=bottom;verticalAlign=top;align=center;html=1;shape=mxgraph.aws3.rds;fillColor=#2E73B8;gradientColor=none;" parent="fvweWiXP8NdeZRgMbFEW-1" vertex="1">
          <mxGeometry x="259.25" y="367" width="40" height="40" as="geometry" />
        </mxCell>
        <mxCell id="fvweWiXP8NdeZRgMbFEW-45" value="EC2" style="text;html=1;strokeColor=none;fillColor=none;align=center;verticalAlign=middle;whiteSpace=wrap;rounded=0;" parent="fvweWiXP8NdeZRgMbFEW-1" vertex="1">
          <mxGeometry x="67.26" y="421" width="98.5" height="30" as="geometry" />
        </mxCell>
        <mxCell id="fvweWiXP8NdeZRgMbFEW-47" value="RDS primary" style="text;html=1;strokeColor=none;fillColor=none;align=center;verticalAlign=middle;whiteSpace=wrap;rounded=0;" parent="fvweWiXP8NdeZRgMbFEW-1" vertex="1">
          <mxGeometry x="230" y="422.25" width="98.5" height="30" as="geometry" />
        </mxCell>
        <mxCell id="fvweWiXP8NdeZRgMbFEW-48" value="AZ-us-east-1a" style="text;html=1;strokeColor=none;fillColor=none;align=center;verticalAlign=middle;whiteSpace=wrap;rounded=0;" parent="fvweWiXP8NdeZRgMbFEW-1" vertex="1">
          <mxGeometry x="49.260000000000005" y="470.25" width="134.5" height="30" as="geometry" />
        </mxCell>
        <mxCell id="fvweWiXP8NdeZRgMbFEW-49" value="AZ-us-east-2a" style="text;html=1;strokeColor=none;fillColor=none;align=center;verticalAlign=middle;whiteSpace=wrap;rounded=0;" parent="fvweWiXP8NdeZRgMbFEW-1" vertex="1">
          <mxGeometry x="435.5" y="475" width="134.5" height="30" as="geometry" />
        </mxCell>
        <mxCell id="fvweWiXP8NdeZRgMbFEW-50" value="" style="outlineConnect=0;dashed=0;verticalLabelPosition=bottom;verticalAlign=top;align=center;html=1;shape=mxgraph.aws3.ec2;fillColor=#F58534;gradientColor=none;" parent="fvweWiXP8NdeZRgMbFEW-1" vertex="1">
          <mxGeometry x="97.38" y="360" width="38.25" height="47" as="geometry" />
        </mxCell>
        <mxCell id="fvweWiXP8NdeZRgMbFEW-34" value="Port 3306" style="text;html=1;strokeColor=none;fillColor=none;align=center;verticalAlign=middle;whiteSpace=wrap;rounded=0;" parent="fvweWiXP8NdeZRgMbFEW-1" vertex="1">
          <mxGeometry x="610" y="280.25" width="60" height="30" as="geometry" />
        </mxCell>
        <mxCell id="fvweWiXP8NdeZRgMbFEW-52" value="Port 3306" style="text;html=1;strokeColor=none;fillColor=none;align=center;verticalAlign=middle;whiteSpace=wrap;rounded=0;" parent="fvweWiXP8NdeZRgMbFEW-1" vertex="1">
          <mxGeometry x="212" y="278.25" width="60" height="30" as="geometry" />
        </mxCell>
        <mxCell id="fvweWiXP8NdeZRgMbFEW-53" value="" style="endArrow=classic;html=1;rounded=0;" parent="fvweWiXP8NdeZRgMbFEW-1" edge="1">
          <mxGeometry width="50" height="50" relative="1" as="geometry">
            <mxPoint x="199" y="321.5" as="sourcePoint" />
            <mxPoint x="199.00000000000003" y="251.5" as="targetPoint" />
          </mxGeometry>
        </mxCell>
        <mxCell id="xPwRhOb-ixuaVwfGaJ3L-3" value="" style="outlineConnect=0;dashed=0;verticalLabelPosition=bottom;verticalAlign=top;align=center;html=1;shape=mxgraph.aws3.rds;fillColor=#2E73B8;gradientColor=none;" vertex="1" parent="fvweWiXP8NdeZRgMbFEW-1">
          <mxGeometry x="643.5" y="380" width="40" height="40" as="geometry" />
        </mxCell>
        <mxCell id="xPwRhOb-ixuaVwfGaJ3L-4" value="" style="outlineConnect=0;dashed=0;verticalLabelPosition=bottom;verticalAlign=top;align=center;html=1;shape=mxgraph.aws3.ec2;fillColor=#F58534;gradientColor=none;" vertex="1" parent="fvweWiXP8NdeZRgMbFEW-1">
          <mxGeometry x="502.51" y="373" width="38.25" height="47" as="geometry" />
        </mxCell>
        <mxCell id="xPwRhOb-ixuaVwfGaJ3L-5" value="RDS primary" style="text;html=1;strokeColor=none;fillColor=none;align=center;verticalAlign=middle;whiteSpace=wrap;rounded=0;" vertex="1" parent="fvweWiXP8NdeZRgMbFEW-1">
          <mxGeometry x="614.25" y="432" width="98.5" height="30" as="geometry" />
        </mxCell>
        <mxCell id="xPwRhOb-ixuaVwfGaJ3L-6" value="" style="outlineConnect=0;dashed=0;verticalLabelPosition=bottom;verticalAlign=top;align=center;html=1;shape=mxgraph.aws3.vpc_nat_gateway;fillColor=#F58534;gradientColor=none;" vertex="1" parent="fvweWiXP8NdeZRgMbFEW-1">
          <mxGeometry x="489.88" y="160.5" width="63.5" height="59" as="geometry" />
        </mxCell>
        <mxCell id="xPwRhOb-ixuaVwfGaJ3L-8" value="" style="outlineConnect=0;dashed=0;verticalLabelPosition=bottom;verticalAlign=top;align=center;html=1;shape=mxgraph.aws3.vpc_nat_gateway;fillColor=#F58534;gradientColor=none;" vertex="1" parent="fvweWiXP8NdeZRgMbFEW-1">
          <mxGeometry x="91.13999999999999" y="160.5" width="63.5" height="59" as="geometry" />
        </mxCell>
        <mxCell id="xPwRhOb-ixuaVwfGaJ3L-9" value="NAT Gateway" style="text;html=1;strokeColor=none;fillColor=none;align=center;verticalAlign=middle;whiteSpace=wrap;rounded=0;" vertex="1" parent="fvweWiXP8NdeZRgMbFEW-1">
          <mxGeometry x="81.45" y="225.5" width="92.62" height="24" as="geometry" />
        </mxCell>
        <mxCell id="xPwRhOb-ixuaVwfGaJ3L-10" value="NAT Gateway" style="text;html=1;strokeColor=none;fillColor=none;align=center;verticalAlign=middle;whiteSpace=wrap;rounded=0;" vertex="1" parent="fvweWiXP8NdeZRgMbFEW-1">
          <mxGeometry x="455.5" y="225.5" width="94.5" height="24" as="geometry" />
        </mxCell>
        <mxCell id="fvweWiXP8NdeZRgMbFEW-28" value="" style="outlineConnect=0;dashed=0;verticalLabelPosition=bottom;verticalAlign=top;align=center;html=1;shape=mxgraph.aws3.application_load_balancer;fillColor=#F58534;gradientColor=none;" parent="fvweWiXP8NdeZRgMbFEW-1" vertex="1">
          <mxGeometry x="304.88" y="8" width="49.75" height="52" as="geometry" />
        </mxCell>
        <mxCell id="xPwRhOb-ixuaVwfGaJ3L-25" value="" style="outlineConnect=0;dashed=0;verticalLabelPosition=bottom;verticalAlign=top;align=center;html=1;shape=mxgraph.aws3.application_load_balancer;fillColor=#F58534;gradientColor=none;" vertex="1" parent="fvweWiXP8NdeZRgMbFEW-1">
          <mxGeometry x="614.25" y="8" width="49.75" height="52" as="geometry" />
        </mxCell>
        <mxCell id="xPwRhOb-ixuaVwfGaJ3L-50" value="AZ-us-east-1b" style="text;html=1;strokeColor=none;fillColor=none;align=center;verticalAlign=middle;whiteSpace=wrap;rounded=0;" vertex="1" parent="fvweWiXP8NdeZRgMbFEW-1">
          <mxGeometry x="212" y="471.5" width="134.5" height="30" as="geometry" />
        </mxCell>
        <mxCell id="xPwRhOb-ixuaVwfGaJ3L-51" value="" style="outlineConnect=0;dashed=0;verticalLabelPosition=bottom;verticalAlign=top;align=center;html=1;shape=mxgraph.aws3.auto_scaling;fillColor=#F58534;gradientColor=none;" vertex="1" parent="fvweWiXP8NdeZRgMbFEW-1">
          <mxGeometry x="169.63" y="165" width="60" height="54.5" as="geometry" />
        </mxCell>
        <mxCell id="xPwRhOb-ixuaVwfGaJ3L-52" value="" style="outlineConnect=0;dashed=0;verticalLabelPosition=bottom;verticalAlign=top;align=center;html=1;shape=mxgraph.aws3.auto_scaling;fillColor=#F58534;gradientColor=none;" vertex="1" parent="fvweWiXP8NdeZRgMbFEW-1">
          <mxGeometry x="170" y="365.5" width="60" height="54.5" as="geometry" />
        </mxCell>
        <mxCell id="xPwRhOb-ixuaVwfGaJ3L-57" value="ALB" style="text;html=1;strokeColor=none;fillColor=none;align=center;verticalAlign=middle;whiteSpace=wrap;rounded=0;" vertex="1" parent="fvweWiXP8NdeZRgMbFEW-1">
          <mxGeometry x="294.63" y="50" width="60" height="30" as="geometry" />
        </mxCell>
        <mxCell id="xPwRhOb-ixuaVwfGaJ3L-58" value="ALB" style="text;html=1;strokeColor=none;fillColor=none;align=center;verticalAlign=middle;whiteSpace=wrap;rounded=0;" vertex="1" parent="fvweWiXP8NdeZRgMbFEW-1">
          <mxGeometry x="610" y="50" width="60" height="30" as="geometry" />
        </mxCell>
        <mxCell id="xPwRhOb-ixuaVwfGaJ3L-59" value="" style="outlineConnect=0;dashed=0;verticalLabelPosition=bottom;verticalAlign=top;align=center;html=1;shape=mxgraph.aws3.vpc_nat_gateway;fillColor=#F58534;gradientColor=none;" vertex="1" parent="fvweWiXP8NdeZRgMbFEW-1">
          <mxGeometry x="247.5" y="162.75" width="63.5" height="59" as="geometry" />
        </mxCell>
        <mxCell id="xPwRhOb-ixuaVwfGaJ3L-60" value="NAT Gateway" style="text;html=1;strokeColor=none;fillColor=none;align=center;verticalAlign=middle;whiteSpace=wrap;rounded=0;" vertex="1" parent="fvweWiXP8NdeZRgMbFEW-1">
          <mxGeometry x="229.63" y="225.5" width="92.62" height="24" as="geometry" />
        </mxCell>
        <mxCell id="xPwRhOb-ixuaVwfGaJ3L-64" value="AZ-us-east-2b" style="text;html=1;strokeColor=none;fillColor=none;align=center;verticalAlign=middle;whiteSpace=wrap;rounded=0;" vertex="1" parent="fvweWiXP8NdeZRgMbFEW-1">
          <mxGeometry x="604.88" y="475" width="134.5" height="30" as="geometry" />
        </mxCell>
        <mxCell id="xPwRhOb-ixuaVwfGaJ3L-66" value="" style="outlineConnect=0;dashed=0;verticalLabelPosition=bottom;verticalAlign=top;align=center;html=1;shape=mxgraph.aws3.vpc_nat_gateway;fillColor=#F58534;gradientColor=none;" vertex="1" parent="fvweWiXP8NdeZRgMbFEW-1">
          <mxGeometry x="620" y="162.75" width="63.5" height="59" as="geometry" />
        </mxCell>
        <mxCell id="xPwRhOb-ixuaVwfGaJ3L-70" value="EC2&lt;br&gt;word press site" style="text;html=1;strokeColor=none;fillColor=none;align=center;verticalAlign=middle;whiteSpace=wrap;rounded=0;" vertex="1" parent="fvweWiXP8NdeZRgMbFEW-1">
          <mxGeometry x="471.5" y="432" width="98.5" height="30" as="geometry" />
        </mxCell>
        <mxCell id="xPwRhOb-ixuaVwfGaJ3L-75" value="NAT Gateway" style="text;html=1;strokeColor=none;fillColor=none;align=center;verticalAlign=middle;whiteSpace=wrap;rounded=0;" vertex="1" parent="fvweWiXP8NdeZRgMbFEW-1">
          <mxGeometry x="604.88" y="225.5" width="94.5" height="24" as="geometry" />
        </mxCell>
        <mxCell id="fvweWiXP8NdeZRgMbFEW-5" value="" style="image;aspect=fixed;perimeter=ellipsePerimeter;html=1;align=center;shadow=0;dashed=0;spacingTop=3;image=img/lib/active_directory/laptop_client.svg;" parent="1" vertex="1">
          <mxGeometry x="190" y="-831" width="81" height="90" as="geometry" />
        </mxCell>
        <mxCell id="fvweWiXP8NdeZRgMbFEW-6" value="" style="endArrow=classic;html=1;rounded=0;exitX=1;exitY=0.5;exitDx=0;exitDy=0;" parent="1" source="fvweWiXP8NdeZRgMbFEW-5" edge="1">
          <mxGeometry width="50" height="50" relative="1" as="geometry">
            <mxPoint x="580" y="-410" as="sourcePoint" />
            <mxPoint x="560" y="-735" as="targetPoint" />
          </mxGeometry>
        </mxCell>
        <mxCell id="fvweWiXP8NdeZRgMbFEW-13" value="HTTP Port 80" style="text;html=1;strokeColor=none;fillColor=none;align=center;verticalAlign=middle;whiteSpace=wrap;rounded=0;" parent="1" vertex="1">
          <mxGeometry x="370" y="-810" width="90" height="30" as="geometry" />
        </mxCell>
        <mxCell id="fvweWiXP8NdeZRgMbFEW-29" value="" style="image;aspect=fixed;perimeter=ellipsePerimeter;html=1;align=center;shadow=0;dashed=0;spacingTop=3;image=img/lib/active_directory/laptop_client.svg;" parent="1" vertex="1">
          <mxGeometry x="220" y="-741" width="81" height="90" as="geometry" />
        </mxCell>
        <mxCell id="fvweWiXP8NdeZRgMbFEW-30" value="" style="endArrow=classic;html=1;rounded=0;exitX=1;exitY=0.5;exitDx=0;exitDy=0;" parent="1" edge="1">
          <mxGeometry width="50" height="50" relative="1" as="geometry">
            <mxPoint x="291" y="-688" as="sourcePoint" />
            <mxPoint x="560" y="-737" as="targetPoint" />
          </mxGeometry>
        </mxCell>
        <mxCell id="fvweWiXP8NdeZRgMbFEW-31" value="HTTP Port 80" style="text;html=1;strokeColor=none;fillColor=none;align=center;verticalAlign=middle;whiteSpace=wrap;rounded=0;rotation=-10;" parent="1" vertex="1">
          <mxGeometry x="320" y="-750" width="100" height="40" as="geometry" />
        </mxCell>
        <mxCell id="fvweWiXP8NdeZRgMbFEW-32" value="user 1" style="text;html=1;strokeColor=none;fillColor=none;align=center;verticalAlign=middle;whiteSpace=wrap;rounded=0;" parent="1" vertex="1">
          <mxGeometry x="140" y="-760" width="60" height="30" as="geometry" />
        </mxCell>
        <mxCell id="fvweWiXP8NdeZRgMbFEW-33" value="user 2" style="text;html=1;strokeColor=none;fillColor=none;align=center;verticalAlign=middle;whiteSpace=wrap;rounded=0;" parent="1" vertex="1">
          <mxGeometry x="140" y="-710" width="90" height="30" as="geometry" />
        </mxCell>
        <mxCell id="fvweWiXP8NdeZRgMbFEW-35" value="" style="outlineConnect=0;dashed=0;verticalLabelPosition=bottom;verticalAlign=top;align=center;html=1;shape=mxgraph.aws3.efs;fillColor=#E05243;gradientColor=none;" parent="1" vertex="1">
          <mxGeometry x="1060" y="-390" width="76.5" height="93" as="geometry" />
        </mxCell>
        <mxCell id="fvweWiXP8NdeZRgMbFEW-36" value="EFS" style="text;html=1;strokeColor=none;fillColor=none;align=center;verticalAlign=middle;whiteSpace=wrap;rounded=0;" parent="1" vertex="1">
          <mxGeometry x="1068.25" y="-297" width="60" height="30" as="geometry" />
        </mxCell>
        <mxCell id="fvweWiXP8NdeZRgMbFEW-38" value="" style="endArrow=classic;html=1;rounded=0;" parent="1" source="UEzPUAAOIrF-is8g5C7q-175" edge="1">
          <mxGeometry width="50" height="50" relative="1" as="geometry">
            <mxPoint x="930" y="-340" as="sourcePoint" />
            <mxPoint x="1050" y="-310" as="targetPoint" />
          </mxGeometry>
        </mxCell>
        <mxCell id="fvweWiXP8NdeZRgMbFEW-39" value="Port 2049" style="text;html=1;strokeColor=none;fillColor=none;align=center;verticalAlign=middle;whiteSpace=wrap;rounded=0;" parent="1" vertex="1">
          <mxGeometry x="960" y="-310" width="60" height="30" as="geometry" />
        </mxCell>
        <mxCell id="xPwRhOb-ixuaVwfGaJ3L-12" value="" style="endArrow=classic;html=1;rounded=0;" edge="1" parent="1" target="UEzPUAAOIrF-is8g5C7q-175">
          <mxGeometry width="50" height="50" relative="1" as="geometry">
            <mxPoint x="1050" y="-350" as="sourcePoint" />
            <mxPoint x="710" y="-490" as="targetPoint" />
          </mxGeometry>
        </mxCell>
        <mxCell id="xPwRhOb-ixuaVwfGaJ3L-13" value="" style="outlineConnect=0;dashed=0;verticalLabelPosition=bottom;verticalAlign=top;align=center;html=1;shape=mxgraph.aws3.route_53;fillColor=#F58536;gradientColor=none;" vertex="1" parent="1">
          <mxGeometry x="579.75" y="-680" width="65.25" height="67.5" as="geometry" />
        </mxCell>
        <mxCell id="fvweWiXP8NdeZRgMbFEW-20" value="" style="outlineConnect=0;dashed=0;verticalLabelPosition=bottom;verticalAlign=top;align=center;html=1;shape=mxgraph.aws3.internet_gateway;fillColor=#F58534;gradientColor=none;" parent="1" vertex="1">
          <mxGeometry x="760" y="-756" width="48" height="52" as="geometry" />
        </mxCell>
        <mxCell id="xPwRhOb-ixuaVwfGaJ3L-19" value="Route 53" style="text;html=1;strokeColor=none;fillColor=none;align=center;verticalAlign=middle;whiteSpace=wrap;rounded=0;" vertex="1" parent="1">
          <mxGeometry x="585" y="-620" width="60" height="30" as="geometry" />
        </mxCell>
        <mxCell id="xPwRhOb-ixuaVwfGaJ3L-21" value="" style="endArrow=none;html=1;rounded=0;entryX=0.29;entryY=0.5;entryDx=0;entryDy=0;entryPerimeter=0;" edge="1" parent="1" target="xPwRhOb-ixuaVwfGaJ3L-13">
          <mxGeometry width="50" height="50" relative="1" as="geometry">
            <mxPoint x="440" y="-640" as="sourcePoint" />
            <mxPoint x="520" y="-640" as="targetPoint" />
          </mxGeometry>
        </mxCell>
        <mxCell id="xPwRhOb-ixuaVwfGaJ3L-23" value="" style="endArrow=classic;html=1;rounded=0;" edge="1" parent="1" target="fvweWiXP8NdeZRgMbFEW-28">
          <mxGeometry width="50" height="50" relative="1" as="geometry">
            <mxPoint x="440" y="-640" as="sourcePoint" />
            <mxPoint x="440" y="-580" as="targetPoint" />
          </mxGeometry>
        </mxCell>
        <mxCell id="xPwRhOb-ixuaVwfGaJ3L-46" value="" style="endArrow=none;html=1;rounded=0;" edge="1" parent="1">
          <mxGeometry width="50" height="50" relative="1" as="geometry">
            <mxPoint x="640" y="-644" as="sourcePoint" />
            <mxPoint x="750" y="-644" as="targetPoint" />
          </mxGeometry>
        </mxCell>
        <mxCell id="xPwRhOb-ixuaVwfGaJ3L-47" value="" style="endArrow=classic;html=1;rounded=0;entryX=0.5;entryY=0;entryDx=0;entryDy=0;entryPerimeter=0;" edge="1" parent="1" target="xPwRhOb-ixuaVwfGaJ3L-25">
          <mxGeometry width="50" height="50" relative="1" as="geometry">
            <mxPoint x="750" y="-640" as="sourcePoint" />
            <mxPoint x="640" y="-410" as="targetPoint" />
          </mxGeometry>
        </mxCell>
        <mxCell id="xPwRhOb-ixuaVwfGaJ3L-53" value="" style="image;aspect=fixed;perimeter=ellipsePerimeter;html=1;align=center;shadow=0;dashed=0;spacingTop=3;image=img/lib/active_directory/internet_cloud.svg;" vertex="1" parent="1">
          <mxGeometry x="555" y="-766.7" width="90" height="56.7" as="geometry" />
        </mxCell>
        <mxCell id="xPwRhOb-ixuaVwfGaJ3L-54" value="" style="endArrow=classic;html=1;rounded=0;" edge="1" parent="1">
          <mxGeometry width="50" height="50" relative="1" as="geometry">
            <mxPoint x="650" y="-730" as="sourcePoint" />
            <mxPoint x="760" y="-730" as="targetPoint" />
          </mxGeometry>
        </mxCell>
        <mxCell id="xPwRhOb-ixuaVwfGaJ3L-55" value="" style="endArrow=classic;html=1;rounded=0;entryX=0.71;entryY=0.09;entryDx=0;entryDy=0;entryPerimeter=0;" edge="1" parent="1" target="xPwRhOb-ixuaVwfGaJ3L-13">
          <mxGeometry width="50" height="50" relative="1" as="geometry">
            <mxPoint x="770" y="-700" as="sourcePoint" />
            <mxPoint x="530" y="-320" as="targetPoint" />
          </mxGeometry>
        </mxCell>
        <mxCell id="xPwRhOb-ixuaVwfGaJ3L-56" value="Internet Gateway" style="text;html=1;strokeColor=none;fillColor=none;align=center;verticalAlign=middle;whiteSpace=wrap;rounded=0;" vertex="1" parent="1">
          <mxGeometry x="808" y="-745" width="60" height="30" as="geometry" />
        </mxCell>
        <mxCell id="xPwRhOb-ixuaVwfGaJ3L-71" value="Internet" style="text;html=1;strokeColor=none;fillColor=none;align=center;verticalAlign=middle;whiteSpace=wrap;rounded=0;" vertex="1" parent="1">
          <mxGeometry x="570" y="-810" width="60" height="30" as="geometry" />
        </mxCell>
      </root>
    </mxGraphModel>
  </diagram>
</mxfile>
